<?xml version="1.0" encoding="utf-8"?>
<!-- Generator: Adobe Illustrator 19.0.0, SVG Export Plug-In . SVG Version: 6.00 Build 0)  -->
<svg version="1.1" id="图层_1" xmlns="http://www.w3.org/2000/svg" xmlns:xlink="http://www.w3.org/1999/xlink" x="0px" y="0px"
	 viewBox="-65.1 -107.9 272.1 272.1" style="enable-background:new -65.1 -107.9 272.1 272.1;" xml:space="preserve">
<style type="text/css">
	.st0{fill:#838995;}
</style>
<g>
	<path class="st0" d="M156.2-76.7H-14.2c-8.6,0-16.8,2.2-23.9,6l99.9,99.9c4.9,4.8,13.5,4.8,18.3,0l99.9-99.9
		C172.9-74.6,164.8-76.7,156.2-76.7z"/>
	<path class="st0" d="M43.5,47.5L24.1,28l-78.7,78.7c9.3,12.2,23.9,20.1,40.5,20.1h170.4c16.5,0,31.2-7.9,40.5-20.1L117.9,28
		L98.5,47.5C91.2,54.8,81.4,58.8,71,58.8S50.8,54.8,43.5,47.5z"/>
	<path class="st0" d="M-65.1,75.9c0,1.5,0.1,2.9,0.2,4.3L5.7,9.7l-62.8-62.8c-5,7.9-8,17.3-8,27.3V75.9z"/>
	<path class="st0" d="M207.1-25.8c0-10.1-3-19.4-8-27.3L136.3,9.7l70.6,70.6c0.1-1.4,0.2-2.8,0.2-4.3V-25.8z"/>
</g>
</svg>
